<svg width="16" height="17" viewBox="0 0 16 17" fill="none" xmlns="http://www.w3.org/2000/svg">
<g id="alarm" clip-path="url(#clip0_109_304)">
<path id="Vector" d="M14.4 13.775L13.9 13C13.8 12.85 13.75 12.7 13.75 12.525V7.32499C13.75 5.84999 13.125 4.47499 11.975 3.44999C11.05 2.62499 9.84999 2.09999 8.57499 1.99999V1.49999C8.57499 1.19999 8.32499 0.924988 7.99999 0.924988C7.69999 0.924988 7.42499 1.17499 7.42499 1.49999V1.97499C7.37499 1.97499 7.32499 1.97499 7.27499 1.99999C4.37499 2.32499 2.19999 4.64999 2.19999 7.42499V12.525C2.17499 12.775 2.12499 12.9 2.07499 12.975L1.59999 13.775C1.44999 14.025 1.44999 14.325 1.59999 14.575C1.74999 14.8 1.99999 14.95 2.27499 14.95H7.44999V15.5C7.44999 15.8 7.69999 16.075 8.02499 16.075C8.32499 16.075 8.59999 15.825 8.59999 15.5V14.95H13.75C14.025 14.95 14.275 14.8 14.425 14.575C14.575 14.325 14.575 14.025 14.4 13.775ZM2.87499 13.825L3.04999 13.525C3.19999 13.275 3.27499 12.975 3.32499 12.625V7.42499C3.32499 5.22499 5.07499 3.37499 7.39999 3.12499C8.82499 2.97499 10.225 3.39999 11.25 4.29999C12.15 5.09999 12.65 6.17499 12.65 7.32499V12.525C12.65 12.9 12.75 13.25 12.975 13.6L13.125 13.825H2.87499Z" fill="#637381"/>
</g>
<defs>
<clipPath id="clip0_109_304">
<rect width="16" height="16" fill="white" transform="translate(0 0.5)"/>
</clipPath>
</defs>
</svg>
