<svg width="21" height="20" viewBox="0 0 21 20" fill="none" xmlns="http://www.w3.org/2000/svg">
<g id="heroicons-mini/arrow-right-circle">
<path id="Subtract" fill-rule="evenodd" clip-rule="evenodd" d="M10.5 18.0001C14.9183 18.0001 18.5 14.4184 18.5 10.0001C18.5 5.58184 14.9183 2.00012 10.5 2.00012C6.08172 2.00012 2.5 5.58184 2.5 10.0001C2.5 14.4184 6.08172 18.0001 10.5 18.0001ZM7.25 9.25012C6.83579 9.25012 6.5 9.58591 6.5 10.0001C6.5 10.4143 6.83579 10.7501 7.25 10.7501H11.8401L9.73966 12.7005C9.43613 12.9824 9.41855 13.4569 9.70041 13.7605C9.98226 14.064 10.4568 14.0816 10.7603 13.7997L14.2603 10.5497C14.4132 10.4078 14.5 10.2087 14.5 10.0001C14.5 9.79157 14.4132 9.59244 14.2603 9.45053L10.7603 6.20053C10.4568 5.91867 9.98226 5.93625 9.7004 6.23978C9.41855 6.54332 9.43613 7.01787 9.73966 7.29972L11.8401 9.25012H7.25Z" fill="white"/>
</g>
</svg>
