<svg width="16" height="17" viewBox="0 0 16 17" fill="none" xmlns="http://www.w3.org/2000/svg">
<g clip-path="url(#clip0_109_298)">
<path d="M1.37499 16.125C1.14999 16.125 0.924991 16.05 0.749991 15.875C0.449991 15.6 0.374991 15.2 0.499991 14.85L1.52499 12.2C0.724991 10.825 0.374991 9.225 0.549991 7.6C0.924991 4.1 3.72499 1.275 7.22499 0.925001C9.49999 0.700001 11.725 1.475 13.35 3.075C14.95 4.675 15.75 6.9 15.525 9.175C15.175 12.75 12.325 15.575 8.74999 15.9C7.09999 16.05 5.49999 15.7 4.12499 14.85L1.79999 16.025C1.64999 16.1 1.52499 16.125 1.37499 16.125ZM4.14999 13.65C4.24999 13.65 4.37499 13.675 4.44999 13.75C5.69999 14.575 7.12499 14.925 8.62499 14.8C11.65 14.525 14.075 12.1 14.375 9.075C14.575 7.125 13.9 5.25 12.525 3.875C11.175 2.5 9.27499 1.825 7.34999 2.05C4.34999 2.35 1.97499 4.75 1.64999 7.725C1.49999 9.2 1.84999 10.625 2.62499 11.85C2.72499 12 2.74999 12.2 2.67499 12.35L1.72499 14.8L3.89999 13.7C3.99999 13.675 4.07499 13.65 4.14999 13.65Z" fill="#637381"/>
</g>
<defs>
<clipPath id="clip0_109_298">
<rect width="16" height="16" fill="white" transform="translate(0 0.5)"/>
</clipPath>
</defs>
</svg>
