<svg width="18" height="18" viewBox="0 0 18 18" fill="none" xmlns="http://www.w3.org/2000/svg">
<g id="logo googleg 48dp">
<path id="Shape" fill-rule="evenodd" clip-rule="evenodd" d="M17.64 9.20466C17.64 8.56648 17.5827 7.95285 17.4764 7.36375H9V10.8451H13.8436C13.635 11.9701 13.0009 12.9233 12.0477 13.5615V15.8197H14.9564C16.6582 14.2528 17.64 11.9456 17.64 9.20466Z" fill="#4285F4"/>
<path id="Shape_2" fill-rule="evenodd" clip-rule="evenodd" d="M9 18.0001C11.43 18.0001 13.4673 17.1942 14.9564 15.8197L12.0477 13.5615C11.2418 14.1015 10.2109 14.4206 9 14.4206C6.65591 14.4206 4.67182 12.8374 3.96409 10.7101H0.957275V13.0419C2.43818 15.9833 5.48182 18.0001 9 18.0001Z" fill="#34A853"/>
<path id="Shape_3" fill-rule="evenodd" clip-rule="evenodd" d="M3.96409 10.7101C3.78409 10.1701 3.68182 9.5933 3.68182 9.00012C3.68182 8.40693 3.78409 7.83012 3.96409 7.29012V4.9583H0.957273C0.347727 6.1733 0 7.54784 0 9.00012C0 10.4524 0.347727 11.8269 0.957273 13.0419L3.96409 10.7101Z" fill="#FBBC05"/>
<path id="Shape_4" fill-rule="evenodd" clip-rule="evenodd" d="M9 3.57967C10.3214 3.57967 11.5077 4.03376 12.4405 4.92558L15.0218 2.34421C13.4632 0.89194 11.4259 0.00012207 9 0.00012207C5.48182 0.00012207 2.43818 2.01694 0.957275 4.9583L3.96409 7.29012C4.67182 5.16285 6.65591 3.57967 9 3.57967Z" fill="#EA4335"/>
</g>
</svg>
