<svg width="16" height="12" viewBox="0 0 16 12" fill="none" xmlns="http://www.w3.org/2000/svg">
<g id="Group">
<path id="Vector" d="M6.25832 6.00014C6.25832 5.03424 7.03408 4.25847 7.99999 4.25847C8.96589 4.25847 9.74165 5.03424 9.74165 6.00014C9.74165 6.96604 8.96589 7.74181 7.99999 7.74181C7.03408 7.74181 6.25832 6.96604 6.25832 6.00014ZM6.71665 6.00014C6.71665 6.70923 7.29089 7.28347 7.99999 7.28347C8.70908 7.28347 9.28332 6.70923 9.28332 6.00014C9.28332 5.29105 8.70908 4.71681 7.99999 4.71681C7.29089 4.71681 6.71665 5.29105 6.71665 6.00014Z" fill="#6B7280" stroke="#6B7280" stroke-width="0.666667"/>
<path id="Vector_2" d="M14.6504 6.43799L14.6631 6.41936L14.6731 6.3992C14.7951 6.15536 14.7951 5.8449 14.6731 5.60106L14.6631 5.58089L14.6504 5.56227C13.7218 4.20129 12.7766 3.21578 11.6953 2.57298C10.6095 1.92746 9.41068 1.64179 8 1.64179C6.58932 1.64179 5.39046 1.92746 4.30466 2.57298C3.22345 3.21578 2.27816 4.20129 1.34965 5.56227L1.34963 5.56226L1.34765 5.56523C1.17301 5.82719 1.17301 6.17306 1.34765 6.43503L1.34763 6.43504L1.34965 6.43799C2.27816 7.79896 3.22345 8.78448 4.30466 9.42727C5.39046 10.0728 6.58932 10.3585 8 10.3585C9.41068 10.3585 10.6095 10.0728 11.6953 9.42727C12.7766 8.78448 13.7218 7.79896 14.6504 6.43799ZM8 1.18346C9.88299 1.18346 11.2854 1.70073 12.3883 2.46476C13.4973 3.23296 14.3195 4.26161 15.0228 5.31021C15.2955 5.71949 15.3009 6.24964 15.0213 6.69222C14.318 7.72815 13.4961 8.75577 12.3878 9.52646C11.2844 10.2938 9.88211 10.8168 8 10.8168C6.11789 10.8168 4.71558 10.2938 3.61219 9.52646C2.50285 8.75501 1.68039 7.72613 0.976641 6.68916C0.702075 6.27636 0.702231 5.72303 0.977108 5.31039C1.68036 4.26173 2.50268 3.233 3.61169 2.46476C4.71463 1.70073 6.11701 1.18346 8 1.18346Z" fill="#6B7280" stroke="#6B7280" stroke-width="0.666667"/>
</g>
</svg>
